<?xml version="1.0" encoding="utf-8"?>
<svg id="master-artboard" viewBox="0 0 982.1490478515625 976.7355346679688" version="1.1" xmlns="http://www.w3.org/2000/svg" x="0px" y="0px" style="enable-background:new 0 0 1400 980;" width="982.1490478515625px" height="976.7355346679688px"><defs><style id="ee-google-fonts">@import url(https://fonts.googleapis.com/css?family=Rubik:300,300italic,400,400italic,500,500italic,700,700italic,900,900italic);</style></defs><rect id="ee-background" x="0" y="0" width="982.1490478515625" height="976.7355346679688" style="fill: white; fill-opacity: 0; pointer-events: none;"/>

















<g transform="matrix(5.190635681152344, 0, 0, 5.190635681152344, -3571.446807861328, -100.24220561981201)"><path class="st3" d="M776.4,94.4c0.9,0.8,1.1,1.8,1.1,3c0,12.4,0,24.8,0,37.1c0,0.4,0,0.9,0,1.3c-0.2,1.1-0.9,1.6-1.9,1.6&#10;&#9;s-1.6-0.5-1.9-1.4c-0.1-0.5-0.1-1-0.1-1.4c0-12.4,0-24.9,0-37.3c0-1.2,0.3-2.2,1.3-2.9C775.3,94.4,775.8,94.4,776.4,94.4z" style="fill: rgb(163, 55, 29);" transform="matrix(1.1522083282470703, 0, 0, 1.1522083282470703, -110.85172271728513, -90.00409698486328)"/><path class="st3" d="M755.8,176.5c0.1-11,8.9-19.7,20-19.6c10.8,0.1,19.6,8.9,19.5,19.7c0,10.9-9,19.8-19.9,19.7&#10;&#9;C764.5,196.3,755.7,187.3,755.8,176.5z" style="fill: rgb(163, 55, 29);" transform="matrix(1.1522083282470703, 0, 0, 1.1522083282470703, -110.85172271728513, -90.00409698486328)"/><path class="st3" d="M714.9,178.5c-6.3,0-12.5,0-18.8,0c-1.8,0-2.7-0.7-2.7-2s0.9-2,2.8-2c12.5,0,25,0,37.5,0c0.2,0,0.4,0,0.6,0&#10;&#9;c1.3,0.1,2.3,1,2.2,2.1c-0.1,1.3-0.9,1.9-2.2,1.9c-3.7,0-7.4,0-11.1,0C720.4,178.5,717.7,178.5,714.9,178.5z" style="fill: rgb(163, 55, 29);" transform="matrix(1.1522083282470703, 0, 0, 1.1522083282470703, -110.85172271728513, -90.00409698486328)"/><path class="st3" d="M836,178.5c-6.3,0-12.5,0-18.8,0c-0.9,0-1.7,0-2.3-0.8c-0.7-1.1-0.2-2.6,1.1-3c0.3-0.1,0.6-0.1,0.9-0.1&#10;&#9;c12.8,0,25.6,0,38.4,0c1.3,0,2.2,0.6,2.2,2s-0.9,1.9-2.2,1.9C848.9,178.5,842.5,178.5,836,178.5z" style="fill: rgb(163, 55, 29);" transform="matrix(1.1522083282470703, 0, 0, 1.1522083282470703, -110.85172271728513, -90.00409698486328)"/><path class="st3" d="M777.5,237.3c0,6.3,0,12.6,0,19c0,1.7-0.8,2.6-2.3,2.3c-1.3-0.2-1.7-1.1-1.7-2.3c0-3.5,0-7,0-10.4&#10;&#9;c0-9.2,0-18.3,0-27.5c0-1.3,0.2-2.4,1.8-2.6c1.4-0.2,2.2,0.6,2.2,2.3c0,4.1,0,8.1,0,12.2C777.5,232.6,777.5,234.9,777.5,237.3z" style="fill: rgb(163, 55, 29);" transform="matrix(1.1522083282470703, 0, 0, 1.1522083282470703, -110.85172271728513, -90.00409698486328)"/><path class="st3" d="M724.1,230c-1.6,0-2.5-1.6-1.7-2.9c0.3-0.5,0.7-0.8,1-1.2c6.1-6.1,12.2-12.2,18.3-18.3c0.3-0.3,0.7-0.7,1.1-0.9&#10;&#9;c0.9-0.5,1.8-0.4,2.5,0.3s0.7,1.5,0.2,2.4c-0.2,0.3-0.4,0.5-0.6,0.7c-6.3,6.3-12.7,12.7-19,19C725.3,229.6,724.8,230,724.1,230z" style="fill: rgb(163, 55, 29);" transform="matrix(1.1522083282470703, 0, 0, 1.1522083282470703, -110.85172271728513, -90.00409698486328)"/><path class="st3" d="M805.3,144.8c-0.1-0.7,0.4-1.3,0.9-1.8c6.3-6.3,12.7-12.7,19-19c1.2-1.2,2.4-1.3,3.2-0.4s0.7,2.1-0.4,3.3&#10;&#9;c-6.3,6.3-12.6,12.6-18.9,18.9c-0.7,0.7-1.5,1.4-2.7,0.8C805.7,146.3,805.3,145.7,805.3,144.8z" style="fill: rgb(163, 55, 29);" transform="matrix(1.1522083282470703, 0, 0, 1.1522083282470703, -110.85172271728513, -90.00409698486328)"/><path class="st3" d="M722,125.1c0.1-1.6,1.6-2.5,2.9-1.7c0.4,0.2,0.8,0.6,1.1,0.9c6.2,6.2,12.4,12.4,18.5,18.5&#10;&#9;c0.4,0.4,0.8,0.8,1,1.2c0.4,0.8,0.2,1.6-0.4,2.2c-0.6,0.6-1.4,0.8-2.2,0.3c-0.2-0.1-0.5-0.3-0.6-0.5c-6.5-6.5-13-13-19.6-19.6&#10;&#9;C722.3,126.1,722,125.6,722,125.1z" style="fill: rgb(163, 55, 29);" transform="matrix(1.1522083282470703, 0, 0, 1.1522083282470703, -110.85172271728513, -90.00409698486328)"/><path class="st3" d="M828.9,227.9c0,1.7-1.5,2.6-2.9,1.8c-0.2-0.1-0.4-0.3-0.6-0.5c-6.5-6.5-12.9-12.9-19.4-19.4&#10;&#9;c-0.8-0.8-1-1.8-0.3-2.7c0.6-0.9,1.5-0.9,2.4-0.5c0.3,0.1,0.6,0.4,0.9,0.7c6.4,6.4,12.7,12.7,19.1,19.1&#10;&#9;C828.6,226.8,829,227.3,828.9,227.9z" style="fill: rgb(163, 55, 29);" transform="matrix(1.1522083282470703, 0, 0, 1.1522083282470703, -110.85172271728513, -90.00409698486328)"/></g>






















</svg>